<svg width="22" height="22" viewBox="0 0 22 22" fill="none" xmlns="http://www.w3.org/2000/svg">
<path fill-rule="evenodd" clip-rule="evenodd" d="M1.2925 5.70183C0.896981 5.95469 0.570834 6.3063 0.344731 6.72358C0.118628 7.14086 -1.10003e-06 7.61011 0 8.08721V19.1871C0 19.9331 0.289731 20.6486 0.805456 21.1761C1.32118 21.7036 2.02065 22 2.75 22H19.25C19.9793 22 20.6788 21.7036 21.1945 21.1761C21.7103 20.6486 22 19.9331 22 19.1871V8.08721C22 7.61011 21.8814 7.14086 21.6553 6.72358C21.4292 6.3063 21.103 5.95469 20.7075 5.70183L12.4575 0.427573C12.0204 0.148157 11.5154 0 11 0C10.4846 0 9.97956 0.148157 9.5425 0.427573L1.2925 5.70183V5.70183ZM4.88812 9.10971C4.73789 9.0072 4.56939 8.93596 4.39225 8.90006C4.2151 8.86417 4.03277 8.86431 3.85568 8.90049C3.67859 8.93666 3.5102 9.00817 3.36012 9.11091C3.21004 9.21366 3.08122 9.34563 2.981 9.4993C2.88079 9.65297 2.81114 9.82533 2.77605 10.0065C2.74095 10.1877 2.74109 10.3742 2.77646 10.5554C2.84789 10.9212 3.05847 11.243 3.36188 11.4501L10.2369 16.1378C10.4628 16.292 10.7284 16.3743 11 16.3743C11.2716 16.3743 11.5372 16.292 11.7631 16.1378L18.6381 11.4501C18.9415 11.243 19.1521 10.9212 19.2235 10.5554C19.295 10.1895 19.2214 9.80965 19.019 9.4993C18.8166 9.18895 18.502 8.97355 18.1443 8.90049C17.7867 8.82742 17.4153 8.90268 17.1119 9.10971L11 13.2771L4.88812 9.10971Z" fill="black"/>
</svg>